<svg width="8811" height="3463" viewBox="0 0 8811 3463" fill="none" xmlns="http://www.w3.org/2000/svg">
<rect width="8811" height="3463" fill="black"/>
<rect x="1351" y="1198" width="362" height="1290" rx="170" fill="#00FBB3"/>
<rect x="1338" y="1622" width="845" height="299" rx="149.5" fill="#00FBB3"/>
<rect x="857" y="1139" width="1478" height="275" rx="137.5" fill="#00FBB3"/>
<path d="M2729.63 2455H2465.96V1175.31H2729.63V2455ZM4015.47 2455H3751.8L3238.52 1613.01V2455H2974.84V1175.31H3238.52L3752.68 2019.06V1175.31H4015.47V2455ZM4245.74 2455V1175.31H4639.49C4751.99 1175.31 4852.48 1200.8 4940.96 1251.78C5030.02 1302.17 5099.45 1374.24 5149.26 1467.99C5199.06 1561.15 5223.96 1667.21 5223.96 1786.15V1845.04C5223.96 1963.98 5199.36 2069.75 5150.14 2162.32C5101.5 2254.9 5032.66 2326.68 4943.59 2377.66C4854.53 2428.63 4754.04 2454.41 4642.13 2455H4245.74ZM4509.41 1388.89V2243.18H4636.86C4739.98 2243.18 4818.79 2209.49 4873.28 2142.11C4927.77 2074.73 4955.61 1978.34 4956.78 1852.95V1785.27C4956.78 1655.2 4929.82 1556.76 4875.92 1489.96C4822.01 1422.58 4743.2 1388.89 4639.49 1388.89H4509.41ZM6186.37 1900.41H5680.12V2243.18H6274.26V2455H5416.45V1175.31H6272.5V1388.89H5680.12V1693.87H6186.37V1900.41ZM6902.68 1986.54H6692.62V2455H6428.95V1175.31H6904.43C7055.61 1175.31 7172.21 1209 7254.24 1276.39C7336.27 1343.77 7377.29 1438.98 7377.29 1562.03C7377.29 1649.34 7358.24 1722.29 7320.16 1780.88C7282.66 1838.89 7225.53 1885.18 7148.77 1919.75L7425.62 2442.7V2455H7142.62L6902.68 1986.54ZM6692.62 1772.97H6905.31C6971.52 1772.97 7022.79 1756.27 7059.12 1722.87C7095.45 1688.89 7113.61 1642.3 7113.61 1583.12C7113.61 1522.77 7096.33 1475.31 7061.76 1440.74C7027.77 1406.17 6975.33 1388.89 6904.43 1388.89H6692.62V1772.97Z" fill="white"/>
</svg>
